<?xml version="1.0" standalone="no"?>
<!DOCTYPE svg PUBLIC "-//W3C//DTD SVG 20010904//EN"
 "http://www.w3.org/TR/2001/REC-SVG-20010904/DTD/svg10.dtd">
<svg version="1.0" xmlns="http://www.w3.org/2000/svg"
 width="700.000000pt" height="700.000000pt" viewBox="0 0 700.000000 700.000000"
 preserveAspectRatio="xMidYMid meet">
<metadata>
Created by potrace 1.14, written by Peter Selinger 2001-2017
</metadata>
<g transform="translate(0.000000,700.000000) scale(0.100000,-0.100000)"
fill="#000000" stroke="none">
<path d="M5032 6198 l-218 -218 -216 215 c-118 118 -219 215 -223 215 -4 0
-104 -97 -222 -215 l-216 -216 -193 193 c-105 106 -204 204 -218 218 l-27 24
-217 -217 -218 -217 -214 215 c-118 118 -219 215 -223 215 -5 0 -106 -97 -225
-215 l-216 -216 -215 216 -216 216 -3 -2039 -2 -2038 -423 1 c-232 0 -429 -1
-437 -3 -14 -3 -15 -61 -14 -480 0 -262 4 -501 8 -529 51 -367 369 -683 731
-730 65 -8 3694 -9 3760 -1 310 39 591 266 699 566 25 69 30 89 43 172 6 38
10 5080 4 5080 -2 0 -101 -97 -219 -216 l-216 -215 -218 218 -217 219 -219
-218z m505 -661 c2 -3 4 -933 4 -2067 0 -2291 5 -2114 -67 -2199 -48 -56 -109
-89 -180 -99 -108 -15 -199 19 -268 100 -67 78 -68 86 -68 598 0 340 -3 459
-11 462 -7 2 -597 3 -1313 3 l-1300 -1 0 1603 0 1602 70 3 c115 5 3128 0 3133
-5z m-1162 -4079 l0 -288 -25 -1 c-14 0 -610 -2 -1325 -2 -1328 -2 -1349 -2
-1420 36 -56 29 -122 114 -138 177 -5 23 -10 203 -8 323 l1 47 1457 -2 1458
-3 0 -287z"/>
<path d="M2627 4952 c-3 -6 -1 -560 2 -572 0 -3 394 -5 873 -5 l873 0 0 291 0
292 -872 0 c-480 0 -874 -3 -876 -6z"/>
<path d="M4863 4941 c-123 -42 -191 -137 -194 -271 -3 -137 80 -249 211 -283
111 -29 221 3 294 84 53 59 74 115 74 199 0 114 -66 218 -167 263 -61 27 -153
30 -218 8z"/>
<path d="M2631 4080 c-4 -3 -7 -133 -6 -290 l0 -285 875 -3 875 -2 -1 287 c-1
159 -2 290 -3 293 0 3 -391 5 -867 5 -476 0 -869 -2 -873 -5z"/>
<path d="M4900 4076 c-94 -20 -161 -70 -202 -149 -25 -50 -29 -68 -29 -143 0
-108 60 -203 161 -256 64 -33 195 -33 259 1 51 27 131 106 131 130 0 9 5 22
10 27 21 21 23 136 5 198 -40 137 -191 223 -335 192z"/>
</g>
</svg>
